<?xml version="1.0" encoding="iso-8859-1"?>
<!DOCTYPE svg PUBLIC "-//W3C//DTD SVG 20000303 Stylable//EN"   "http://www.w3.org/TR/2000/03/WD-SVG-20000303/DTD/svg-20000303-stylable.dtd">
<!-- Generator: Adobe Illustrator 9.0, SVG Export Plug-In  -->
<svg  width="20.9pt" height="20.9pt" viewBox="0 0 20.9 20.9" xml:space="preserve">
	<style type="text/css">
	<![CDATA[
		.st0{stroke-miterlimit:5;}
		.st1{fill:url(#aigrd7);stroke-miterlimit:5;}
		.st2{fill-rule:nonzero;clip-rule:nonzero;fill:none;stroke:#4D4D4D;stroke-width:0.6;stroke-miterlimit:4;}
		.st3{fill:#4D4D4D;stroke-miterlimit:5;}
		.st4{display:none;fill-rule:nonzero;clip-rule:nonzero;stroke:#000000;stroke-miterlimit:4;}
		.st5{display:inline;fill:url(#aigrd3);stroke:#4D4D4D;stroke-width:0.6;stroke-miterlimit:5;}
		.st6{fill:url(#aigrd5);stroke-width:0.3;stroke-miterlimit:5;}
		.st7{fill:url(#aigrd6);stroke-width:0.3;stroke-miterlimit:5;}
		.st8{fill:url(#aigrd8);stroke-width:0.3;stroke-miterlimit:5;}
		.st9{fill:url(#aigrd9);stroke-width:0.3;stroke-miterlimit:5;}
		.st10{display:inline;fill:url(#aigrd2);stroke:#4D4D4D;stroke-width:0.6;stroke-miterlimit:5;}
		.st11{fill:url(#aigrd4);stroke-miterlimit:5;}
		.st12{fill:none;stroke:#4D4D4D;stroke-width:0.6;stroke-miterlimit:5;}
		.st13{fill:url(#aigrd10);stroke-miterlimit:5;}
		.st14{fill:#FFFFFF;stroke:#4D4D4D;stroke-width:0.6;stroke-miterlimit:5;}
		.st15{display:inline;fill:url(#aigrd1);stroke:#4D4D4D;stroke-width:0.6;stroke-miterlimit:5;}
		.st16{fill-rule:nonzero;clip-rule:nonzero;stroke:#000000;stroke-miterlimit:4;}
		.st17{opacity:0;fill:none;stroke:none;}
		.st18{fill:url(#aigrd11);stroke-width:0.3;stroke-miterlimit:5;}
		.st19{fill:url(#aigrd12);stroke-width:0.3;stroke-miterlimit:5;}
	]]>
	</style>
	<g id="Layer_x0020_2" class="st16">
		<path class="st17" d="M17.9,1.9h-16v16h16v-16z"/>
	</g>
	<g id="Layer_x0020_26" class="st4">
		<radialGradient id="aigrd1" cx="4.4487" cy="14.1465" r="7.7794" fx="4.4487" fy="14.1465" gradientUnits="userSpaceOnUse">
			<stop  offset="0" style="stop-color:#FFFFFF"/>
			<stop  offset="1" style="stop-color:#E5A76A"/>
		</radialGradient>
		<path class="st15" d="M15.8,12.6c0,0.6-0.4,1-1,1H5.1c-0.6,0-1-0.4-1-1V7c0-0.6,0.4-1,1-1h9.7c0.6,0,1,0.4,1,1v5.6z"/>
	</g>
	<g id="Layer_x0020_4" class="st4">
		<radialGradient id="aigrd2" cx="4.2881" cy="7.541" r="3.5424" fx="4.2881" fy="7.541" gradientUnits="userSpaceOnUse">
			<stop  offset="0" style="stop-color:#FFFFFF"/>
			<stop  offset="1" style="stop-color:#8F91A7"/>
		</radialGradient>
		<path class="st10" d="M9.5,4.6H4.1v2.7h5.3V4.6z"/>
	</g>
	<g id="Layer_x0020_3" class="st4">
		<radialGradient id="aigrd3" cx="9.9692" cy="11.1572" r="4.9157" fx="9.9692" fy="11.1572" gradientUnits="userSpaceOnUse">
			<stop  offset="0" style="stop-color:#FFFFFF"/>
			<stop  offset="1" style="stop-color:#8F91A7"/>
		</radialGradient>
		<path class="st5" d="M15.8,14.9H4.1V7.4h11.7v7.6z"/>
	</g>
	<g id="Layer_x0020_6" class="st16">
		<path class="st12" d="M20.6,20.6H10.4H0.3V10.4V0.3h15.4l2.4,2.3l2.5,2.5v15.4z"/>
	</g>
	<g id="Layer_x0020_7" class="st16">
		<path class="st14" d="M16.1,0.9l0,4l4,0l-4-4z"/>
	</g>
	<g id="Layer_x0020_5" class="st2">
		<g>
			<radialGradient id="aigrd4" cx="3.4746" cy="16.9814" r="3.1967" fx="3.4746" fy="16.9814" gradientUnits="userSpaceOnUse">
				<stop  offset="0" style="stop-color:#FFFFFF"/>
				<stop  offset="1" style="stop-color:#B0B3CC"/>
			</radialGradient>
			<path class="st11" d="M9.1,17.6H2.8V16v-2.8h6.4v4.3z"/>
			<radialGradient id="aigrd5" cx="2.8569" cy="15.8262" r="4.1998" fx="2.8569" fy="15.8262" gradientUnits="userSpaceOnUse">
				<stop  offset="0" style="stop-color:#FFFFFF"/>
				<stop  offset="1" style="stop-color:#E5A76A"/>
			</radialGradient>
			<path class="st6" d="M9,15.8H2.7"/>
			<radialGradient id="aigrd6" cx="2.9932" cy="16.5703" r="4.2001" fx="2.9932" fy="16.5703" gradientUnits="userSpaceOnUse">
				<stop  offset="0" style="stop-color:#FFFFFF"/>
				<stop  offset="1" style="stop-color:#E5A76A"/>
			</radialGradient>
			<path class="st7" d="M9.1,16.6H2.8"/>
		</g>
		<g>
			<radialGradient id="aigrd7" cx="12.6084" cy="16.9814" r="3.1975" fx="12.6084" fy="16.9814" gradientUnits="userSpaceOnUse">
				<stop  offset="0" style="stop-color:#FFFFFF"/>
				<stop  offset="1" style="stop-color:#B0B3CC"/>
			</radialGradient>
			<path class="st1" d="M18.2,17.6h-6.4V16v-2.8h6.4v4.3z"/>
			<radialGradient id="aigrd8" cx="11.9902" cy="15.8262" r="4.2004" fx="11.9902" fy="15.8262" gradientUnits="userSpaceOnUse">
				<stop  offset="0" style="stop-color:#FFFFFF"/>
				<stop  offset="1" style="stop-color:#E5A76A"/>
			</radialGradient>
			<path class="st8" d="M18.1,15.8h-6.3"/>
			<radialGradient id="aigrd9" cx="12.126" cy="16.5703" r="4.2011" fx="12.126" fy="16.5703" gradientUnits="userSpaceOnUse">
				<stop  offset="0" style="stop-color:#FFFFFF"/>
				<stop  offset="1" style="stop-color:#E5A76A"/>
			</radialGradient>
			<path class="st9" d="M18.3,16.6h-6.3"/>
		</g>
		<g>
			<radialGradient id="aigrd10" cx="8.0688" cy="7.9448" r="3.1972" fx="8.0688" fy="7.9448" gradientUnits="userSpaceOnUse">
				<stop  offset="0" style="stop-color:#FFFFFF"/>
				<stop  offset="1" style="stop-color:#B0B3CC"/>
			</radialGradient>
			<path class="st13" d="M13.7,8.5H7.4V7V4.2h6.4v4.3z"/>
			<radialGradient id="aigrd11" cx="7.4507" cy="6.7891" r="4.2008" fx="7.4507" fy="6.7891" gradientUnits="userSpaceOnUse">
				<stop  offset="0" style="stop-color:#FFFFFF"/>
				<stop  offset="1" style="stop-color:#E5A76A"/>
			</radialGradient>
			<path class="st18" d="M13.6,6.8H7.3"/>
			<radialGradient id="aigrd12" cx="7.5884" cy="7.5327" r="4.2001" fx="7.5884" fy="7.5327" gradientUnits="userSpaceOnUse">
				<stop  offset="0" style="stop-color:#FFFFFF"/>
				<stop  offset="1" style="stop-color:#E5A76A"/>
			</radialGradient>
			<path class="st19" d="M13.7,7.5H7.4"/>
		</g>
		<path class="st0" d="M5.6,12.9v-1.5h9.8V13"/>
		<path class="st0" d="M10.5,11.2V9.8"/>
		<path class="st3" d="M9.9,9.9h1.3l-0.7-1l-0.6,1z"/>
	</g>
</svg>
